<svg width="72" height="29" viewBox="0 0 72 29" fill="none" xmlns="http://www.w3.org/2000/svg">
<path d="M2.664 11.47C1.368 10.21 0.72 8.62 0.72 6.7C0.72 4.78 1.368 3.19 2.664 1.93C3.96 0.67 5.562 0.0399995 7.47 0.0399995C9.654 0.0399995 11.358 0.808 12.582 2.344C13.122 3.004 13.518 3.766 13.77 4.63H11.7C11.484 4.15 11.184 3.718 10.8 3.334C9.924 2.458 8.814 2.02 7.47 2.02C6.114 2.02 5.01 2.452 4.158 3.316C3.306 4.18 2.88 5.308 2.88 6.7C2.88 8.092 3.306 9.22 4.158 10.084C5.01 10.948 6.114 11.38 7.47 11.38C8.85 11.38 9.984 10.9 10.872 9.94C11.268 9.532 11.574 9.052 11.79 8.5H13.86C13.548 9.436 13.11 10.246 12.546 10.93C11.298 12.55 9.606 13.36 7.47 13.36C5.562 13.36 3.96 12.73 2.664 11.47ZM15.7444 13V0.399999H21.2344C22.7224 0.399999 23.9044 0.783999 24.7804 1.552C25.6564 2.32 26.0944 3.286 26.0944 4.45C26.0944 5.374 25.8064 6.19 25.2304 6.898C24.6664 7.594 23.8744 8.068 22.8544 8.32L26.0044 13H23.5744L20.6044 8.5H17.8144V13H15.7444ZM17.8144 6.52H21.2344C23.0344 6.52 23.9344 5.83 23.9344 4.45C23.9344 3.07 23.0344 2.38 21.2344 2.38H17.8144V6.52ZM28.1721 13V0.399999H31.5921L35.0121 8.23H35.4621L38.8821 0.399999H42.2121V13H40.1421V4.18L40.3221 2.47H40.1421L36.8121 10.12H33.5721L30.2421 2.47H30.0621L30.2421 4.18V13H28.1721ZM1.854 26.83C0.978 25.93 0.54 24.79 0.54 23.41C0.54 22.03 0.978 20.89 1.854 19.99C2.73 19.09 3.822 18.64 5.13 18.64C6.594 18.64 7.788 19.198 8.712 20.314C9.108 20.83 9.384 21.382 9.54 21.97H7.56C7.476 21.67 7.32 21.4 7.092 21.16C6.624 20.62 5.97 20.35 5.13 20.35C4.386 20.35 3.762 20.632 3.258 21.196C2.766 21.76 2.52 22.498 2.52 23.41C2.52 24.322 2.766 25.06 3.258 25.624C3.762 26.188 4.386 26.47 5.13 26.47C5.994 26.47 6.672 26.2 7.164 25.66C7.38 25.42 7.542 25.15 7.65 24.85H9.54C9.384 25.462 9.108 26.02 8.712 26.524C7.8 27.628 6.606 28.18 5.13 28.18C3.822 28.18 2.73 27.73 1.854 26.83ZM11.0644 28V18.82H12.9544V24.94L12.9364 25.12H13.1164L17.2744 18.82H19.3444V28H17.4544V21.88L17.4724 21.7H17.2924L13.1344 28H11.0644ZM22.2798 26.83C21.4038 25.93 20.9658 24.79 20.9658 23.41C20.9658 22.03 21.4038 20.89 22.2798 19.99C23.1558 19.09 24.2478 18.64 25.5558 18.64C27.0198 18.64 28.2138 19.198 29.1378 20.314C29.5338 20.83 29.8098 21.382 29.9658 21.97H27.9858C27.9018 21.67 27.7458 21.4 27.5178 21.16C27.0498 20.62 26.3958 20.35 25.5558 20.35C24.8118 20.35 24.1878 20.632 23.6838 21.196C23.1918 21.76 22.9458 22.498 22.9458 23.41C22.9458 24.322 23.1918 25.06 23.6838 25.624C24.1878 26.188 24.8118 26.47 25.5558 26.47C26.4198 26.47 27.0978 26.2 27.5898 25.66C27.8058 25.42 27.9678 25.15 28.0758 24.85H29.9658C29.8098 25.462 29.5338 26.02 29.1378 26.524C28.2258 27.628 27.0318 28.18 25.5558 28.18C24.2478 28.18 23.1558 27.73 22.2798 26.83ZM30.5002 20.53V18.82H38.5102V20.53H35.4502V28H33.5602V20.53H30.5002ZM40.4916 26.812C39.5916 25.888 39.1416 24.754 39.1416 23.41C39.1416 22.066 39.5916 20.938 40.4916 20.026C41.4036 19.102 42.5136 18.64 43.8216 18.64C45.1296 18.64 46.2336 19.102 47.1336 20.026C48.0456 20.938 48.5016 22.066 48.5016 23.41V24.04H41.0316C41.1756 24.796 41.5056 25.39 42.0216 25.822C42.5376 26.254 43.1376 26.47 43.8216 26.47C44.6616 26.47 45.3336 26.26 45.8376 25.84C46.0656 25.672 46.2636 25.462 46.4316 25.21H48.4116C48.1596 25.798 47.8416 26.296 47.4576 26.704C46.4736 27.688 45.2616 28.18 43.8216 28.18C42.5136 28.18 41.4036 27.724 40.4916 26.812ZM41.1216 22.51H46.5216C46.4136 21.91 46.1256 21.4 45.6576 20.98C45.2016 20.56 44.5896 20.35 43.8216 20.35C43.1736 20.35 42.5976 20.548 42.0936 20.944C41.5896 21.328 41.2656 21.85 41.1216 22.51ZM50.123 28V18.82H52.823L55.253 24.31H55.613L58.043 18.82H60.743V28H58.853V21.52L58.871 21.34H58.781L56.513 26.38H54.353L52.085 21.34H51.995L52.013 21.52V28H50.123ZM63.5863 26.866C62.7703 25.978 62.3623 24.826 62.3623 23.41C62.3623 21.994 62.7703 20.848 63.5863 19.972C64.4143 19.084 65.4463 18.64 66.6823 18.64C67.4623 18.64 68.1763 18.868 68.8243 19.324C69.1003 19.516 69.3463 19.738 69.5623 19.99H69.6523V18.82H71.5423V28H69.6523V26.74H69.5623C69.3823 26.992 69.1363 27.232 68.8243 27.46C68.1763 27.94 67.4623 28.18 66.6823 28.18C65.4463 28.18 64.4143 27.742 63.5863 26.866ZM65.0623 21.142C64.5823 21.67 64.3423 22.426 64.3423 23.41C64.3423 24.394 64.5823 25.15 65.0623 25.678C65.5423 26.206 66.2023 26.47 67.0423 26.47C67.8343 26.47 68.4643 26.206 68.9323 25.678C69.4123 25.138 69.6523 24.382 69.6523 23.41C69.6523 22.438 69.4123 21.688 68.9323 21.16C68.4643 20.62 67.8343 20.35 67.0423 20.35C66.2023 20.35 65.5423 20.614 65.0623 21.142Z" fill="#6A8998"/>
</svg>
