<svg xmlns="http://www.w3.org/2000/svg" xmlns:xlink="http://www.w3.org/1999/xlink" version="1.1" width="256" height="256" viewBox="0 0 256 256" xml:space="preserve">
<desc>Created with Fabric.js 1.7.22</desc>
<defs>
</defs>
<g transform="translate(128 128) scale(0.72 0.72)" style="">
	<g style="stroke: none; stroke-width: 0; stroke-dasharray: none; stroke-linecap: butt; stroke-linejoin: miter; stroke-miterlimit: 10; fill: none; fill-rule: nonzero; opacity: 1;" transform="translate(-175.05 -175.05000000000004) scale(3.89 3.89)" >
	<path d="M 89.26 25.686 c -0.707 -0.946 -1.789 -1.488 -2.97 -1.488 H 74.974 H 30.6 l -0.686 -2.642 c -0.595 -2.291 -2.664 -3.892 -5.031 -3.892 h -7.565 c -0.552 0 -1 0.448 -1 1 c 0 0.552 0.448 1 1 1 h 7.565 c 1.457 0 2.729 0.984 3.096 2.394 l 9.095 35.022 c 0.114 0.441 0.512 0.749 0.968 0.749 h 42.52 c 0.553 0 1 -0.447 1 -1 s -0.447 -1 -1 -1 H 38.814 l -1.857 -7.149 h 43.176 c 2.284 0 4.332 -1.53 4.979 -3.72 l 4.732 -16.006 C 90.18 27.823 89.966 26.631 89.26 25.686 z M 87.927 28.388 l -4.732 16.006 c -0.398 1.347 -1.657 2.287 -3.061 2.287 H 36.438 l -5.319 -20.483 h 43.855 H 86.29 c 0.544 0 1.042 0.25 1.367 0.685 C 87.983 27.318 88.081 27.867 87.927 28.388 z" style="stroke: none; stroke-width: 1; stroke-dasharray: none; stroke-linecap: butt; stroke-linejoin: miter; stroke-miterlimit: 10; fill: rgb(0,0,0); fill-rule: nonzero; opacity: 1;" transform=" matrix(1 0 0 1 0 0) " stroke-linecap="round" />
	<path d="M 45.396 72.335 c -3.167 0 -5.743 -2.576 -5.743 -5.743 c 0 -3.166 2.576 -5.742 5.743 -5.742 c 3.166 0 5.743 2.576 5.743 5.742 C 51.139 69.759 48.563 72.335 45.396 72.335 z M 45.396 62.85 c -2.064 0 -3.743 1.679 -3.743 3.742 c 0 2.064 1.679 3.743 3.743 3.743 s 3.743 -1.679 3.743 -3.743 C 49.139 64.529 47.46 62.85 45.396 62.85 z" style="stroke: none; stroke-width: 1; stroke-dasharray: none; stroke-linecap: butt; stroke-linejoin: miter; stroke-miterlimit: 10; fill: rgb(0,0,0); fill-rule: nonzero; opacity: 1;" transform=" matrix(1 0 0 1 0 0) " stroke-linecap="round" />
	<path d="M 72.113 72.335 c -3.166 0 -5.742 -2.576 -5.742 -5.743 c 0 -3.166 2.576 -5.742 5.742 -5.742 c 3.167 0 5.743 2.576 5.743 5.742 C 77.856 69.759 75.28 72.335 72.113 72.335 z M 72.113 62.85 c -2.063 0 -3.742 1.679 -3.742 3.742 c 0 2.064 1.679 3.743 3.742 3.743 c 2.064 0 3.743 -1.679 3.743 -3.743 C 75.856 64.529 74.177 62.85 72.113 62.85 z" style="stroke: none; stroke-width: 1; stroke-dasharray: none; stroke-linecap: butt; stroke-linejoin: miter; stroke-miterlimit: 10; fill: rgb(0,0,0); fill-rule: nonzero; opacity: 1;" transform=" matrix(1 0 0 1 0 0) " stroke-linecap="round" />
	<path d="M 20.936 32.205 H 1 c -0.552 0 -1 -0.448 -1 -1 s 0.448 -1 1 -1 h 19.936 c 0.552 0 1 0.448 1 1 S 21.488 32.205 20.936 32.205 z" style="stroke: none; stroke-width: 1; stroke-dasharray: none; stroke-linecap: butt; stroke-linejoin: miter; stroke-miterlimit: 10; fill: rgb(0,0,0); fill-rule: nonzero; opacity: 1;" transform=" matrix(1 0 0 1 0 0) " stroke-linecap="round" />
	<path d="M 21.972 40.443 H 2.037 c -0.552 0 -1 -0.448 -1 -1 c 0 -0.552 0.448 -1 1 -1 h 19.936 c 0.552 0 1 0.448 1 1 C 22.972 39.995 22.524 40.443 21.972 40.443 z" style="stroke: none; stroke-width: 1; stroke-dasharray: none; stroke-linecap: butt; stroke-linejoin: miter; stroke-miterlimit: 10; fill: rgb(0,0,0); fill-rule: nonzero; opacity: 1;" transform=" matrix(1 0 0 1 0 0) " stroke-linecap="round" />
	<path d="M 23.228 48.681 H 3.292 c -0.552 0 -1 -0.447 -1 -1 s 0.448 -1 1 -1 h 19.936 c 0.552 0 1 0.447 1 1 S 23.78 48.681 23.228 48.681 z" style="stroke: none; stroke-width: 1; stroke-dasharray: none; stroke-linecap: butt; stroke-linejoin: miter; stroke-miterlimit: 10; fill: rgb(0,0,0); fill-rule: nonzero; opacity: 1;" transform=" matrix(1 0 0 1 0 0) " stroke-linecap="round" />
</g>
</g>
</svg>